<mxfile host="app.diagrams.net" modified="2024-02-06T01:59:24.546Z" agent="Mozilla/5.0 (Windows NT 10.0; Win64; x64) AppleWebKit/537.36 (KHTML, like Gecko) Chrome/120.0.0.0 Safari/537.36" version="23.1.1" etag="eayMxE7r-Ap8AdD6Q9zM" type="github">
  <diagram name="第 1 页" id="c03cArWUon2MIWnHPzCF">
    <mxGraphModel>
      <root>
        <mxCell id="0" />
        <mxCell id="1" parent="0" />
      </root>
    </mxGraphModel>
  </diagram>
</mxfile>
